<svg xmlns="http://www.w3.org/2000/svg" viewBox="0 0 750 500"><g id="freepik--background-simple--inject-169"><path d="M727,287.69a268.52,268.52,0,0,0-76.78-117.25C600.27,125.89,508.88,52.8,424.7,30.72,300.86-1.75,192.61,91,148.58,143.92S23.82,255.26,15.57,306.29s.91,124.33,40.36,142.89H677S767.65,413.15,727,287.69Z" style="fill:#90CAF9"></path><path d="M727,287.69a268.52,268.52,0,0,0-76.78-117.25C600.27,125.89,508.88,52.8,424.7,30.72,300.86-1.75,192.61,91,148.58,143.92S23.82,255.26,15.57,306.29s.91,124.33,40.36,142.89H677S767.65,413.15,727,287.69Z" style="fill:#fff;opacity:0.7000000000000001"></path></g><g id="freepik--Plants--inject-169"><g style="opacity:0.30000000000000004"><path d="M482.42,336.61c.08,0,1.33-5.6,1.36-6,.44-4.22-1.2-12.63-5.55-14.54a5.62,5.62,0,0,0-7.52,3.65c-1,3.19.55,7,2.37,9.6C475.21,332.41,482.42,336.6,482.42,336.61Z"></path><path d="M398.07,337.75c3.46,1.37,11.78.89,11.79.89s-2-5.4-2.15-5.72c-2-3.76-8-9.87-12.65-9.07a5.61,5.61,0,0,0-4.26,7.2C391.69,334.28,395.12,336.58,398.07,337.75Z"></path><path d="M401.8,361.79c3.55.39,10.91-2,11.5-2.23a98.42,98.42,0,0,0,4.95,12.32c1.1,2.34,2.29,4.65,3.51,7-.71-1-1.36-1.83-1.46-1.94-2.89-3.11-10.3-7.42-14.6-5.41a5.63,5.63,0,0,0-2.21,8.07c1.72,2.88,5.64,4.2,8.79,4.54s9.51-1.58,11.17-2.12l1.43,2.64c2.3,4.21,4.62,8.41,6.77,12.59.76,1.47,1.45,3,2.15,4.43-.64-.86-1.18-1.58-1.27-1.68-2.89-3.11-10.29-7.42-14.6-5.41a5.63,5.63,0,0,0-2.21,8.07c1.72,2.88,5.64,4.2,8.79,4.54s8.89-1.4,10.87-2c.67,1.53,1.35,3.07,1.93,4.59.37,1,.8,2,1.11,3.09s.67,2.1,1,3.13c.55,2,1.14,4.08,1.64,6.06.35,1.37.67,2.68,1,4-.73-1.48-2.24-4.34-2.39-4.56-2.38-3.51-9-8.89-13.61-7.56a5.62,5.62,0,0,0-3.4,7.64c1.26,3.11,4.93,5,8,5.82,3.37.91,10.72-.29,11.64-.44.52,2.19,1,4.32,1.43,6.35,1.49,7,2.46,12.86,3.09,17l3.21-.12c0-.12,0-.23-.06-.36-.72-4.16-1.84-10.09-3.5-17.13-.51-2.23-1.11-4.59-1.75-7a60.81,60.81,0,0,0,6.38-3.28c2.53,2.54,8.86,5.4,9.68,5.77-.77,2.11-1.55,4.16-2.31,6.08-2.61,6.66-5,12.1-6.8,15.89l3.53-.13c1.63-3.76,3.7-8.78,5.9-14.76.8-2.14,1.6-4.44,2.41-6.82.9.15,8.26,1.38,11.64.49,3.06-.8,6.74-2.68,8-5.79a5.63,5.63,0,0,0-3.38-7.65c-4.55-1.36-11.24,4-13.64,7.5-.14.21-1.42,2.62-2.21,4.15.33-1,.65-1.91,1-2.92.65-2,1.24-4,1.88-6.13.28-1,.55-2.1.83-3.17s.48-2.21.73-3.32c.52-2.59.93-5.24,1.27-7.92,1.74.56,7.94,2.48,11.11,2.14s7.07-1.63,8.8-4.51a5.61,5.61,0,0,0-2.18-8.07c-4.29-2-11.72,2.25-14.62,5.34-.18.2-2,2.65-3,4,.2-1.61.4-3.22.54-4.86.42-4.73.7-9.52,1-14.31.09-1.47.19-2.93.3-4.39.61.21,7.93,2.64,11.48,2.27,3.15-.33,7.07-1.63,8.8-4.51a5.62,5.62,0,0,0-2.18-8.08c-4.29-2-11.72,2.25-14.62,5.35-.21.23-2.84,3.77-3.47,4.7.23-3.21.48-6.42.86-9.57a99.46,99.46,0,0,1,2.3-12.64c.28.1,7.91,2.68,11.54,2.29,3.16-.33,7.08-1.63,8.81-4.5a5.62,5.62,0,0,0-2.18-8.08c-4.3-2-11.72,2.25-14.62,5.35-.19.2-2.19,2.89-3.12,4.2l-.24-.12a71.33,71.33,0,0,1,4.56-12.08c1-2.15,2.08-4.15,3.18-6.08,1.37.63,7.67,3.42,11,3.43s7.21-.84,9.24-3.51a5.63,5.63,0,0,0-1.27-8.27c-4.05-2.48-11.9.95-15.12,3.71-.18.15-1.79,1.88-3,3.15.51-.86,1-1.76,1.52-2.57,1.88-3.06,3.79-5.75,5.51-8.12,1-1.34,1.9-2.53,2.76-3.63,1.67-.09,8.38-.53,11.27-2s6-4.08,6.59-7.38a5.63,5.63,0,0,0-4.95-6.75c-4.74-.34-10.12,6.32-11.71,10.26-.13.34-1.67,5.9-1.58,5.9h.1c-.86,1.05-1.76,2.18-2.73,3.44-1.77,2.33-3.74,5-5.7,8a99.44,99.44,0,0,0-5.84,10.08,73.86,73.86,0,0,0-4.87,12.09l0,.15c0-1.39-.23-5.28-.28-5.58-.69-4.18-4.49-11.86-9.19-12.56a5.62,5.62,0,0,0-6.29,5.51c-.16,3.35,2.38,6.61,4.82,8.64,2.74,2.28,10.22,4.33,10.81,4.49a99.19,99.19,0,0,0-2.66,13c-.37,2.55-.65,5.14-.91,7.73-.06-1.2-.12-2.27-.15-2.42-.69-4.19-4.49-11.87-9.19-12.57a5.63,5.63,0,0,0-6.29,5.52c-.16,3.35,2.38,6.6,4.82,8.63s8.81,3.93,10.49,4.4l-.27,3c-.4,4.78-.78,9.56-1.29,14.23-.19,1.65-.42,3.27-.66,4.88-.05-1.07-.11-2-.13-2.1-.69-4.19-4.49-11.86-9.19-12.56a5.62,5.62,0,0,0-6.3,5.51c-.15,3.35,2.39,6.61,4.83,8.63s8.19,3.74,10.19,4.32c-.29,1.64-.58,3.3-.93,4.88-.27,1.08-.45,2.13-.78,3.2s-.6,2.11-.89,3.16c-.65,2-1.3,4-2,6-.46,1.34-.92,2.6-1.39,3.88.2-1.64.53-4.85.52-5.12a21.72,21.72,0,0,0-3.3-10.51,6.43,6.43,0,0,0-.12-1.24,5.62,5.62,0,0,0-7-4.52c-4.54,1.38-7.17,9.54-7.24,13.78,0,.25.26,3,.45,4.68-.26-1-.51-1.95-.8-3-.55-2-1.16-4-1.81-6.15-.35-1-.7-2.06-1.06-3.1s-.82-2.11-1.22-3.17c-1-2.45-2.13-4.89-3.32-7.31,1.77-.49,8-2.32,10.45-4.34s5-5.27,4.85-8.62a5.61,5.61,0,0,0-6.27-5.53c-4.7.68-8.53,8.34-9.24,12.52,0,.26-.22,3.32-.28,5-.73-1.45-1.44-2.9-2.23-4.35-2.26-4.17-4.67-8.33-7.07-12.48L424.16,380c.63-.17,8.08-2.17,10.83-4.44,2.45-2,5-5.27,4.86-8.62a5.63,5.63,0,0,0-6.28-5.54c-4.7.68-8.53,8.35-9.24,12.53-.05.32-.29,4.72-.3,5.84-1.59-2.81-3.14-5.63-4.56-8.46a98.69,98.69,0,0,1-5.06-11.81c.29-.07,8.08-2.13,10.89-4.46,2.45-2,5-5.26,4.86-8.61a5.63,5.63,0,0,0-6.27-5.54c-4.71.68-8.54,8.34-9.25,12.52,0,.28-.23,3.63-.28,5.23l-.27,0a72.63,72.63,0,0,1-2.86-12.6c-.35-2.34-.55-4.61-.7-6.82,1.49-.23,8.28-1.38,11.05-3.19s5.55-4.68,5.77-8a5.61,5.61,0,0,0-5.62-6.19c-4.75.15-9.4,7.35-10.56,11.43-.07.22-.46,2.55-.73,4.25-.05-1-.12-2-.15-3-.12-3.59,0-6.88.12-9.8.08-1.66.19-3.16.3-4.56,1.34-1,6.7-5.06,8.29-7.89s2.76-6.71,1.42-9.78a5.62,5.62,0,0,0-7.85-2.91c-4.14,2.33-4.95,10.86-4.1,15,.07.36,1.86,5.84,1.93,5.79l.08-.06c-.14,1.35-.27,2.79-.38,4.37-.19,2.92-.37,6.23-.33,9.83a100.61,100.61,0,0,0,.69,11.63,72.73,72.73,0,0,0,2.61,12.78.58.58,0,0,1,.05.14c-.79-1.14-3.1-4.28-3.3-4.5-2.89-3.11-10.29-7.42-14.6-5.41a5.63,5.63,0,0,0-2.21,8.07C394.73,360.12,398.65,361.44,401.8,361.79Z"></path><path d="M398.07,337.75c3.46,1.37,11.78.89,11.79.89s-2-5.4-2.15-5.72c-2-3.76-8-9.87-12.65-9.07a5.61,5.61,0,0,0-4.26,7.2C391.69,334.28,395.12,336.58,398.07,337.75Z"></path><path d="M482.42,336.61c.08,0,1.33-5.6,1.36-6,.44-4.22-1.2-12.63-5.55-14.54a5.62,5.62,0,0,0-7.52,3.65c-1,3.19.55,7,2.37,9.6C475.21,332.41,482.42,336.6,482.42,336.61Z"></path><path d="M401.8,361.79c3.55.39,10.91-2,11.5-2.23a98.42,98.42,0,0,0,4.95,12.32c1.1,2.34,2.29,4.65,3.51,7-.71-1-1.36-1.83-1.46-1.94-2.89-3.11-10.3-7.42-14.6-5.41a5.63,5.63,0,0,0-2.21,8.07c1.72,2.88,5.64,4.2,8.79,4.54s9.51-1.58,11.17-2.12l1.43,2.64c2.3,4.21,4.62,8.41,6.77,12.59.76,1.47,1.45,3,2.15,4.43-.64-.86-1.18-1.58-1.27-1.68-2.89-3.11-10.29-7.42-14.6-5.41a5.63,5.63,0,0,0-2.21,8.07c1.72,2.88,5.64,4.2,8.79,4.54s8.89-1.4,10.87-2c.67,1.53,1.35,3.07,1.93,4.59.37,1,.8,2,1.11,3.09s.67,2.1,1,3.13c.55,2,1.14,4.08,1.64,6.06.35,1.37.67,2.68,1,4-.73-1.48-2.24-4.34-2.39-4.56-2.38-3.51-9-8.89-13.61-7.56a5.62,5.62,0,0,0-3.4,7.64c1.26,3.11,4.93,5,8,5.82,3.37.91,10.72-.29,11.64-.44.52,2.19,1,4.32,1.43,6.35,1.49,7,2.46,12.86,3.09,17l3.21-.12c0-.12,0-.23-.06-.36-.72-4.16-1.84-10.09-3.5-17.13-.51-2.23-1.11-4.59-1.75-7a60.81,60.81,0,0,0,6.38-3.28c2.53,2.54,8.86,5.4,9.68,5.77-.77,2.11-1.55,4.16-2.31,6.08-2.61,6.66-5,12.1-6.8,15.89l3.53-.13c1.63-3.76,3.7-8.78,5.9-14.76.8-2.14,1.6-4.44,2.41-6.82.9.15,8.26,1.38,11.64.49,3.06-.8,6.74-2.68,8-5.79a5.63,5.63,0,0,0-3.38-7.65c-4.55-1.36-11.24,4-13.64,7.5-.14.21-1.42,2.62-2.21,4.15.33-1,.65-1.91,1-2.92.65-2,1.24-4,1.88-6.13.28-1,.55-2.1.83-3.17s.48-2.21.73-3.32c.52-2.59.93-5.24,1.27-7.92,1.74.56,7.94,2.48,11.11,2.14s7.07-1.63,8.8-4.51a5.61,5.61,0,0,0-2.18-8.07c-4.29-2-11.72,2.25-14.62,5.34-.18.2-2,2.65-3,4,.2-1.61.4-3.22.54-4.86.42-4.73.7-9.52,1-14.31.09-1.47.19-2.93.3-4.39.61.21,7.93,2.64,11.48,2.27,3.15-.33,7.07-1.63,8.8-4.51a5.62,5.62,0,0,0-2.18-8.08c-4.29-2-11.72,2.25-14.62,5.35-.21.23-2.84,3.77-3.47,4.7.23-3.21.48-6.42.86-9.57a99.46,99.46,0,0,1,2.3-12.64c.28.1,7.91,2.68,11.54,2.29,3.16-.33,7.08-1.63,8.81-4.5a5.62,5.62,0,0,0-2.18-8.08c-4.3-2-11.72,2.25-14.62,5.35-.19.2-2.19,2.89-3.12,4.2l-.24-.12a71.33,71.33,0,0,1,4.56-12.08c1-2.15,2.08-4.15,3.18-6.08,1.37.63,7.67,3.42,11,3.43s7.21-.84,9.24-3.51a5.63,5.63,0,0,0-1.27-8.27c-4.05-2.48-11.9.95-15.12,3.71-.18.15-1.79,1.88-3,3.15.51-.86,1-1.76,1.52-2.57,1.88-3.06,3.79-5.75,5.51-8.12,1-1.34,1.9-2.53,2.76-3.63,1.67-.09,8.38-.53,11.27-2s6-4.08,6.59-7.38a5.63,5.63,0,0,0-4.95-6.75c-4.74-.34-10.12,6.32-11.71,10.26-.13.34-1.67,5.9-1.58,5.9h.1c-.86,1.05-1.76,2.18-2.73,3.44-1.77,2.33-3.74,5-5.7,8a99.44,99.44,0,0,0-5.84,10.08,73.86,73.86,0,0,0-4.87,12.09l0,.15c0-1.39-.23-5.28-.28-5.58-.69-4.18-4.49-11.86-9.19-12.56a5.62,5.62,0,0,0-6.29,5.51c-.16,3.35,2.38,6.61,4.82,8.64,2.74,2.28,10.22,4.33,10.81,4.49a99.19,99.19,0,0,0-2.66,13c-.37,2.55-.65,5.14-.91,7.73-.06-1.2-.12-2.27-.15-2.42-.69-4.19-4.49-11.87-9.19-12.57a5.63,5.63,0,0,0-6.29,5.52c-.16,3.35,2.38,6.6,4.82,8.63s8.81,3.93,10.49,4.4l-.27,3c-.4,4.78-.78,9.56-1.29,14.23-.19,1.65-.42,3.27-.66,4.88-.05-1.07-.11-2-.13-2.1-.69-4.19-4.49-11.86-9.19-12.56a5.62,5.62,0,0,0-6.3,5.51c-.15,3.35,2.39,6.61,4.83,8.63s8.19,3.74,10.19,4.32c-.29,1.64-.58,3.3-.93,4.88-.27,1.08-.45,2.13-.78,3.2s-.6,2.11-.89,3.16c-.65,2-1.3,4-2,6-.46,1.34-.92,2.6-1.39,3.88.2-1.64.53-4.85.52-5.12a21.72,21.72,0,0,0-3.3-10.51,6.43,6.43,0,0,0-.12-1.24,5.62,5.62,0,0,0-7-4.52c-4.54,1.38-7.17,9.54-7.24,13.78,0,.25.26,3,.45,4.68-.26-1-.51-1.95-.8-3-.55-2-1.16-4-1.81-6.15-.35-1-.7-2.06-1.06-3.1s-.82-2.11-1.22-3.17c-1-2.45-2.13-4.89-3.32-7.31,1.77-.49,8-2.32,10.45-4.34s5-5.27,4.85-8.62a5.61,5.61,0,0,0-6.27-5.53c-4.7.68-8.53,8.34-9.24,12.52,0,.26-.22,3.32-.28,5-.73-1.45-1.44-2.9-2.23-4.35-2.26-4.17-4.67-8.33-7.07-12.48L424.16,380c.63-.17,8.08-2.17,10.83-4.44,2.45-2,5-5.27,4.86-8.62a5.63,5.63,0,0,0-6.28-5.54c-4.7.68-8.53,8.35-9.24,12.53-.05.32-.29,4.72-.3,5.84-1.59-2.81-3.14-5.63-4.56-8.46a98.69,98.69,0,0,1-5.06-11.81c.29-.07,8.08-2.13,10.89-4.46,2.45-2,5-5.26,4.86-8.61a5.63,5.63,0,0,0-6.27-5.54c-4.71.68-8.54,8.34-9.25,12.52,0,.28-.23,3.63-.28,5.23l-.27,0a72.63,72.63,0,0,1-2.86-12.6c-.35-2.34-.55-4.61-.7-6.82,1.49-.23,8.28-1.38,11.05-3.19s5.55-4.68,5.77-8a5.61,5.61,0,0,0-5.62-6.19c-4.75.15-9.4,7.35-10.56,11.43-.07.22-.46,2.55-.73,4.25-.05-1-.12-2-.15-3-.12-3.59,0-6.88.12-9.8.08-1.66.19-3.16.3-4.56,1.34-1,6.7-5.06,8.29-7.89s2.76-6.71,1.42-9.78a5.62,5.62,0,0,0-7.85-2.91c-4.14,2.33-4.95,10.86-4.1,15,.07.36,1.86,5.84,1.93,5.79l.08-.06c-.14,1.35-.27,2.79-.38,4.37-.19,2.92-.37,6.23-.33,9.83a100.61,100.61,0,0,0,.69,11.63,72.73,72.73,0,0,0,2.61,12.78.58.58,0,0,1,.05.14c-.79-1.14-3.1-4.28-3.3-4.5-2.89-3.11-10.29-7.42-14.6-5.41a5.63,5.63,0,0,0-2.21,8.07C394.73,360.12,398.65,361.44,401.8,361.79Z"></path></g><g style="opacity:0.30000000000000004"><path d="M154.66,262.91c.12.07,2.17-9.21,2.23-9.81.72-6.95-2-20.8-9.13-23.95-5.16-2.27-10.73.88-12.4,6s.92,11.53,3.91,15.81C142.77,256,154.65,262.9,154.66,262.91Z"></path><path d="M15.75,264.79c5.7,2.25,19.41,1.46,19.42,1.46s-3.26-8.88-3.54-9.42c-3.24-6.19-13.13-16.25-20.84-14.93-5.55.95-8.46,6.64-7,11.85S10.9,262.87,15.75,264.79Z"></path><path d="M21.89,304.37c5.85.64,18-3.34,18.94-3.66A163.09,163.09,0,0,0,49,321c1.82,3.84,3.78,7.65,5.79,11.45-1.18-1.6-2.24-3-2.41-3.2-4.76-5.12-17-12.22-24-8.91-5.11,2.39-6.4,8.65-3.63,13.29s9.27,6.91,14.46,7.48,15.66-2.61,18.41-3.49c.78,1.45,1.55,2.9,2.34,4.35,3.8,6.93,7.61,13.84,11.15,20.73,1.25,2.42,2.39,4.86,3.54,7.29-1-1.41-1.94-2.6-2.09-2.77-4.76-5.11-17-12.21-24-8.9-5.11,2.38-6.41,8.65-3.64,13.29s9.28,6.91,14.47,7.48c5,.55,14.65-2.31,17.91-3.34,1.1,2.53,2.21,5.06,3.16,7.56.61,1.72,1.32,3.33,1.84,5.09s1.1,3.45,1.64,5.15c.92,3.31,1.89,6.73,2.7,10,.59,2.26,1.1,4.42,1.63,6.6-1.22-2.43-3.69-7.14-3.94-7.51C80.3,396.84,69.32,388,61.81,390.18c-5.4,1.58-7.64,7.57-5.6,12.58s8.12,8.24,13.16,9.59c5.55,1.48,17.65-.48,19.16-.73.86,3.6,1.66,7.12,2.36,10.45,2.45,11.5,4,21.18,5.08,28l5.3-.19c0-.21-.06-.39-.1-.6-1.19-6.85-3-16.61-5.76-28.2-.85-3.67-1.84-7.57-2.89-11.56A101.88,101.88,0,0,0,103,404.09c4.16,4.19,14.59,8.9,15.94,9.5-1.28,3.48-2.55,6.85-3.8,10-4.31,11-8.31,19.92-11.2,26.15l5.82-.2c2.67-6.19,6.08-14.46,9.71-24.3,1.31-3.53,2.64-7.33,4-11.24,1.49.26,13.6,2.28,19.17.81,5-1.33,11.1-4.42,13.2-9.53s-.15-11-5.56-12.6c-7.5-2.23-18.51,6.58-22.46,12.35-.23.34-2.34,4.31-3.64,6.84.54-1.61,1.07-3.15,1.6-4.81,1.07-3.26,2-6.56,3.1-10.09.45-1.73.91-3.47,1.36-5.23s.8-3.63,1.21-5.46c.85-4.27,1.52-8.64,2.09-13.05,2.86.93,13.07,4.08,18.28,3.53s11.65-2.69,14.49-7.42,1.52-10.9-3.58-13.31c-7.07-3.33-19.3,3.71-24.07,8.81-.3.32-3.31,4.36-4.93,6.62.33-2.66.66-5.31.9-8,.69-7.78,1.14-15.68,1.63-23.56.15-2.42.32-4.82.49-7.23,1,.34,13.07,4.35,18.91,3.74,5.19-.55,11.65-2.69,14.49-7.43s1.52-10.89-3.58-13.3c-7.07-3.34-19.3,3.71-24.07,8.81-.36.38-4.69,6.21-5.72,7.74.37-5.3.79-10.58,1.42-15.76A161.55,161.55,0,0,1,142,295.67c.47.16,13,4.4,19,3.77,5.19-.55,11.64-2.69,14.49-7.42s1.52-10.9-3.58-13.3c-7.07-3.34-19.3,3.7-24.07,8.8-.31.34-3.62,4.77-5.14,6.92l-.4-.2a119.36,119.36,0,0,1,7.51-19.89c1.65-3.54,3.43-6.83,5.24-10,2.26,1,12.63,5.62,18.07,5.65,5.22,0,11.87-1.4,15.23-5.78s2.7-10.67-2.1-13.62c-6.67-4.1-19.59,1.57-24.9,6.11-.29.25-2.94,3.08-4.85,5.18.84-1.42,1.68-2.9,2.5-4.24,3.1-5,6.25-9.46,9.06-13.36,1.63-2.2,3.13-4.16,4.56-6,2.75-.14,13.8-.87,18.56-3.31s9.89-6.71,10.84-12.15-2.52-10.71-8.14-11.12c-7.8-.56-16.66,10.42-19.28,16.9-.22.56-2.75,9.72-2.61,9.71h.17c-1.41,1.73-2.91,3.59-4.5,5.66-2.91,3.84-6.16,8.21-9.38,13.2a163.93,163.93,0,0,0-9.62,16.6,120.76,120.76,0,0,0-8,19.91c0,.08,0,.17-.07.25,0-2.29-.36-8.69-.45-9.18-1.14-6.89-7.39-19.54-15.13-20.69-5.58-.83-10.11,3.68-10.37,9.08s3.93,10.88,7.94,14.22c4.53,3.76,16.83,7.12,17.81,7.39A164.07,164.07,0,0,0,136,316.19c-.6,4.21-1.07,8.47-1.49,12.74-.1-2-.2-3.75-.24-4-1.15-6.89-7.4-19.53-15.14-20.68-5.57-.83-10.11,3.67-10.36,9.08s3.92,10.88,7.94,14.21,14.5,6.47,17.27,7.25c-.14,1.64-.3,3.27-.44,4.92-.66,7.87-1.29,15.74-2.13,23.44-.3,2.71-.7,5.37-1.08,8-.09-1.76-.18-3.24-.22-3.46-1.14-6.89-7.39-19.54-15.13-20.69-5.58-.83-10.12,3.68-10.37,9.08s3.93,10.88,7.94,14.22,13.49,6.16,16.78,7.1c-.47,2.71-.94,5.43-1.53,8-.44,1.77-.73,3.51-1.27,5.27l-1.48,5.2c-1.06,3.27-2.14,6.65-3.25,9.81-.76,2.21-1.52,4.29-2.29,6.4.33-2.7.86-8,.86-8.44a35.91,35.91,0,0,0-5.44-17.3,9.94,9.94,0,0,0-.2-2c-1-5.31-6.19-9.09-11.59-7.45-7.48,2.28-11.8,15.71-11.91,22.69,0,.41.42,4.89.73,7.71-.44-1.63-.84-3.22-1.31-4.89-.91-3.31-1.92-6.59-3-10.12-.57-1.69-1.16-3.4-1.75-5.12s-1.34-3.47-2-5.22c-1.64-4-3.49-8-5.45-12,2.9-.81,13.15-3.81,17.2-7.15s8.22-8.66,8-14.18-4.75-9.93-10.33-9.12c-7.74,1.12-14,13.74-15.22,20.62-.07.43-.35,5.47-.45,8.24-1.2-2.39-2.38-4.79-3.67-7.17-3.72-6.87-7.7-13.71-11.64-20.56-1.21-2.09-2.39-4.19-3.58-6.29,1-.28,13.3-3.58,17.83-7.32,4-3.32,8.23-8.67,8-14.19s-4.75-9.92-10.33-9.11c-7.74,1.11-14,13.73-15.22,20.62-.09.52-.48,7.77-.5,9.61-2.61-4.62-5.17-9.26-7.51-13.93a163.63,163.63,0,0,1-8.33-19.43c.48-.13,13.3-3.52,17.94-7.35,4-3.32,8.23-8.67,8-14.19s-4.74-9.92-10.32-9.11c-7.75,1.11-14.05,13.73-15.22,20.62-.08.45-.39,6-.47,8.6l-.44.07a119.21,119.21,0,0,1-4.72-20.74c-.57-3.87-.9-7.6-1.14-11.23,2.45-.39,13.64-2.28,18.19-5.26,4.37-2.86,9.13-7.71,9.51-13.22s-3.63-10.39-9.27-10.2c-7.82.26-15.47,12.11-17.39,18.83-.11.36-.75,4.19-1.19,7-.08-1.64-.2-3.34-.25-4.91-.2-5.91,0-11.34.19-16.14.13-2.74.31-5.2.5-7.51,2.21-1.63,11-8.34,13.65-13s4.55-11.05,2.34-16.11-8-7.54-12.92-4.78c-6.82,3.83-8.15,17.88-6.76,24.72.12.6,3.07,9.63,3.18,9.55l.13-.1c-.22,2.21-.44,4.59-.63,7.19-.3,4.81-.61,10.25-.53,16.19a163.44,163.44,0,0,0,1.13,19.15,120,120,0,0,0,4.3,21c0,.08.06.16.08.25-1.29-1.89-5.1-7.05-5.44-7.42-4.75-5.11-17-12.21-24-8.9C6,286,4.66,292.25,7.43,296.89S16.71,303.8,21.89,304.37Z"></path><path d="M15.75,264.79c5.7,2.25,19.41,1.46,19.42,1.46s-3.26-8.88-3.54-9.42c-3.24-6.19-13.13-16.25-20.84-14.93-5.55.95-8.46,6.64-7,11.85S10.9,262.87,15.75,264.79Z" style="opacity:0.30000000000000004"></path><path d="M154.66,262.91c.12.07,2.17-9.21,2.23-9.81.72-6.95-2-20.8-9.13-23.95-5.16-2.27-10.73.88-12.4,6s.92,11.53,3.91,15.81C142.77,256,154.65,262.9,154.66,262.91Z" style="opacity:0.30000000000000004"></path><path d="M21.89,304.37c5.85.64,18-3.34,18.94-3.66A163.09,163.09,0,0,0,49,321c1.82,3.84,3.78,7.65,5.79,11.45-1.18-1.6-2.24-3-2.41-3.2-4.76-5.12-17-12.22-24-8.91-5.11,2.39-6.4,8.65-3.63,13.29s9.27,6.91,14.46,7.48,15.66-2.61,18.41-3.49c.78,1.45,1.55,2.9,2.34,4.35,3.8,6.93,7.61,13.84,11.15,20.73,1.25,2.42,2.39,4.86,3.54,7.29-1-1.41-1.94-2.6-2.09-2.77-4.76-5.11-17-12.21-24-8.9-5.11,2.38-6.41,8.65-3.64,13.29s9.28,6.91,14.47,7.48c5,.55,14.65-2.31,17.91-3.34,1.1,2.53,2.21,5.06,3.16,7.56.61,1.72,1.32,3.33,1.84,5.09s1.1,3.45,1.64,5.15c.92,3.31,1.89,6.73,2.7,10,.59,2.26,1.1,4.42,1.63,6.6-1.22-2.43-3.69-7.14-3.94-7.51C80.3,396.84,69.32,388,61.81,390.18c-5.4,1.58-7.64,7.57-5.6,12.58s8.12,8.24,13.16,9.59c5.55,1.48,17.65-.48,19.16-.73.86,3.6,1.66,7.12,2.36,10.45,2.45,11.5,4,21.18,5.08,28l5.3-.19c0-.21-.06-.39-.1-.6-1.19-6.85-3-16.61-5.76-28.2-.85-3.67-1.84-7.57-2.89-11.56A101.88,101.88,0,0,0,103,404.09c4.16,4.19,14.59,8.9,15.94,9.5-1.28,3.48-2.55,6.85-3.8,10-4.31,11-8.31,19.92-11.2,26.15l5.82-.2c2.67-6.19,6.08-14.46,9.71-24.3,1.31-3.53,2.64-7.33,4-11.24,1.49.26,13.6,2.28,19.17.81,5-1.33,11.1-4.42,13.2-9.53s-.15-11-5.56-12.6c-7.5-2.23-18.51,6.58-22.46,12.35-.23.34-2.34,4.31-3.64,6.84.54-1.61,1.07-3.15,1.6-4.81,1.07-3.26,2-6.56,3.1-10.09.45-1.73.91-3.47,1.36-5.23s.8-3.63,1.21-5.46c.85-4.27,1.52-8.64,2.09-13.05,2.86.93,13.07,4.08,18.28,3.53s11.65-2.69,14.49-7.42,1.52-10.9-3.58-13.31c-7.07-3.33-19.3,3.71-24.07,8.81-.3.32-3.31,4.36-4.93,6.62.33-2.66.66-5.31.9-8,.69-7.78,1.14-15.68,1.63-23.56.15-2.42.32-4.82.49-7.23,1,.34,13.07,4.35,18.91,3.74,5.19-.55,11.65-2.69,14.49-7.43s1.52-10.89-3.58-13.3c-7.07-3.34-19.3,3.71-24.07,8.81-.36.38-4.69,6.21-5.72,7.74.37-5.3.79-10.58,1.42-15.76A161.55,161.55,0,0,1,142,295.67c.47.16,13,4.4,19,3.77,5.19-.55,11.64-2.69,14.49-7.42s1.52-10.9-3.58-13.3c-7.07-3.34-19.3,3.7-24.07,8.8-.31.34-3.62,4.77-5.14,6.92l-.4-.2a119.36,119.36,0,0,1,7.51-19.89c1.65-3.54,3.43-6.83,5.24-10,2.26,1,12.63,5.62,18.07,5.65,5.22,0,11.87-1.4,15.23-5.78s2.7-10.67-2.1-13.62c-6.67-4.1-19.59,1.57-24.9,6.11-.29.25-2.94,3.08-4.85,5.18.84-1.42,1.68-2.9,2.5-4.24,3.1-5,6.25-9.46,9.06-13.36,1.63-2.2,3.13-4.16,4.56-6,2.75-.14,13.8-.87,18.56-3.31s9.89-6.71,10.84-12.15-2.52-10.71-8.14-11.12c-7.8-.56-16.66,10.42-19.28,16.9-.22.56-2.75,9.72-2.61,9.71h.17c-1.41,1.73-2.91,3.59-4.5,5.66-2.91,3.84-6.16,8.21-9.38,13.2a163.93,163.93,0,0,0-9.62,16.6,120.76,120.76,0,0,0-8,19.91c0,.08,0,.17-.07.25,0-2.29-.36-8.69-.45-9.18-1.14-6.89-7.39-19.54-15.13-20.69-5.58-.83-10.11,3.68-10.37,9.08s3.93,10.88,7.94,14.22c4.53,3.76,16.83,7.12,17.81,7.39A164.07,164.07,0,0,0,136,316.19c-.6,4.21-1.07,8.47-1.49,12.74-.1-2-.2-3.75-.24-4-1.15-6.89-7.4-19.53-15.14-20.68-5.57-.83-10.11,3.67-10.36,9.08s3.92,10.88,7.94,14.21,14.5,6.47,17.27,7.25c-.14,1.64-.3,3.27-.44,4.92-.66,7.87-1.29,15.74-2.13,23.44-.3,2.71-.7,5.37-1.08,8-.09-1.76-.18-3.24-.22-3.46-1.14-6.89-7.39-19.54-15.13-20.69-5.58-.83-10.12,3.68-10.37,9.08s3.93,10.88,7.94,14.22,13.49,6.16,16.78,7.1c-.47,2.71-.94,5.43-1.53,8-.44,1.77-.73,3.51-1.27,5.27l-1.48,5.2c-1.06,3.27-2.14,6.65-3.25,9.81-.76,2.21-1.52,4.29-2.29,6.4.33-2.7.86-8,.86-8.44a35.91,35.91,0,0,0-5.44-17.3,9.94,9.94,0,0,0-.2-2c-1-5.31-6.19-9.09-11.59-7.45-7.48,2.28-11.8,15.71-11.91,22.69,0,.41.42,4.89.73,7.71-.44-1.63-.84-3.22-1.31-4.89-.91-3.31-1.92-6.59-3-10.12-.57-1.69-1.16-3.4-1.75-5.12s-1.34-3.47-2-5.22c-1.64-4-3.49-8-5.45-12,2.9-.81,13.15-3.81,17.2-7.15s8.22-8.66,8-14.18-4.75-9.93-10.33-9.12c-7.74,1.12-14,13.74-15.22,20.62-.07.43-.35,5.47-.45,8.24-1.2-2.39-2.38-4.79-3.67-7.17-3.72-6.87-7.7-13.71-11.64-20.56-1.21-2.09-2.39-4.19-3.58-6.29,1-.28,13.3-3.58,17.83-7.32,4-3.32,8.23-8.67,8-14.19s-4.75-9.92-10.33-9.11c-7.74,1.11-14,13.73-15.22,20.62-.09.52-.48,7.77-.5,9.61-2.61-4.62-5.17-9.26-7.51-13.93a163.63,163.63,0,0,1-8.33-19.43c.48-.13,13.3-3.52,17.94-7.35,4-3.32,8.23-8.67,8-14.19s-4.74-9.92-10.32-9.11c-7.75,1.11-14.05,13.73-15.22,20.62-.08.45-.39,6-.47,8.6l-.44.07a119.21,119.21,0,0,1-4.72-20.74c-.57-3.87-.9-7.6-1.14-11.23,2.45-.39,13.64-2.28,18.19-5.26,4.37-2.86,9.13-7.71,9.51-13.22s-3.63-10.39-9.27-10.2c-7.82.26-15.47,12.11-17.39,18.83-.11.36-.75,4.19-1.19,7-.08-1.64-.2-3.34-.25-4.91-.2-5.91,0-11.34.19-16.14.13-2.74.31-5.2.5-7.51,2.21-1.63,11-8.34,13.65-13s4.55-11.05,2.34-16.11-8-7.54-12.92-4.78c-6.82,3.83-8.15,17.88-6.76,24.72.12.6,3.07,9.63,3.18,9.55l.13-.1c-.22,2.21-.44,4.59-.63,7.19-.3,4.81-.61,10.25-.53,16.19a163.44,163.44,0,0,0,1.13,19.15,120,120,0,0,0,4.3,21c0,.08.06.16.08.25-1.29-1.89-5.1-7.05-5.44-7.42-4.75-5.11-17-12.21-24-8.9C6,286,4.66,292.25,7.43,296.89S16.71,303.8,21.89,304.37Z" style="opacity:0.30000000000000004"></path></g></g><g id="freepik--Graphics--inject-169"><polygon points="568.59 398.52 555.6 398.52 555.6 385.54 540.21 385.54 540.21 398.52 527.22 398.52 527.22 413.92 540.21 413.92 540.21 426.91 555.6 426.91 555.6 413.92 568.59 413.92 568.59 398.52" style="fill:none;stroke:#000;stroke-miterlimit:10;opacity:0.30000000000000004"></polygon><polygon points="239.21 83.61 214.16 83.61 214.16 58.56 184.47 58.56 184.47 83.61 159.41 83.61 159.41 113.3 184.47 113.3 184.47 138.35 214.16 138.35 214.16 113.3 239.21 113.3 239.21 83.61" style="fill:none;stroke:#000;stroke-miterlimit:10;opacity:0.30000000000000004"></polygon><polygon points="150.69 55.23 137.7 55.23 137.7 42.24 122.3 42.24 122.3 55.23 109.31 55.23 109.31 70.62 122.3 70.62 122.3 83.61 137.7 83.61 137.7 70.62 150.69 70.62 150.69 55.23" style="fill:none;stroke:#000;stroke-miterlimit:10;opacity:0.30000000000000004"></polygon><polygon points="478.52 113.08 469.03 113.08 469.03 103.59 457.77 103.59 457.77 113.08 448.28 113.08 448.28 124.33 457.77 124.33 457.77 133.83 469.03 133.83 469.03 124.33 478.52 124.33 478.52 113.08" style="fill:none;stroke:#000;stroke-miterlimit:10;opacity:0.30000000000000004"></polygon><polygon points="719.83 246.54 710.92 246.54 710.92 237.63 700.35 237.63 700.35 246.54 691.44 246.54 691.44 257.11 700.35 257.11 700.35 266.02 710.92 266.02 710.92 257.11 719.83 257.11 719.83 246.54" style="fill:none;stroke:#000;stroke-miterlimit:10;opacity:0.30000000000000004"></polygon></g><g id="freepik--Desk--inject-169"><rect x="549.21" y="326.28" width="10.87" height="13.14" style="fill:#263238;stroke:#263238;stroke-miterlimit:10"></rect><rect x="531.09" y="292.4" width="46.21" height="34.43" style="fill:#fff;stroke:#263238;stroke-miterlimit:10"></rect><rect x="534.21" y="294.72" width="39.98" height="29.79" style="fill:#263238;stroke:#263238;stroke-miterlimit:10"></rect><rect x="507.98" y="341.92" width="3.94" height="108.34" style="fill:#263238;stroke:#263238;stroke-miterlimit:10"></rect><rect x="639.5" y="341.92" width="3.94" height="108.34" style="fill:#263238;stroke:#263238;stroke-miterlimit:10"></rect><polygon points="589.88 341.92 507.99 341.92 507.99 363.66 589.88 363.66 589.88 424.73 643.44 424.73 643.44 363.66 643.44 341.92 589.88 341.92" style="fill:#fff;stroke:#263238;stroke-miterlimit:10"></polygon><rect x="503.5" y="339.56" width="143.66" height="3.03" style="fill:#fff;stroke:#263238;stroke-miterlimit:10"></rect><rect x="593.61" y="346.45" width="45.76" height="20.71" style="fill:#fff;stroke:#263238;stroke-miterlimit:10"></rect><rect x="525.2" y="346.45" width="45.76" height="12.54" style="fill:#fff;stroke:#263238;stroke-miterlimit:10"></rect><rect x="593.61" y="373.47" width="45.76" height="20.71" style="fill:#fff;stroke:#263238;stroke-miterlimit:10"></rect><rect x="593.61" y="400.48" width="45.76" height="20.71" style="fill:#fff;stroke:#263238;stroke-miterlimit:10"></rect></g><g id="freepik--Calendar--inject-169"><rect x="505.97" y="42.87" width="206.31" height="175.13" style="fill:#fff;stroke:#263238;stroke-miterlimit:10"></rect><rect x="505.97" y="42.87" width="206.31" height="25.83" style="fill:#90CAF9;stroke:#263238;stroke-miterlimit:10"></rect><rect x="515.97" y="81.25" width="19.19" height="19.19" style="fill:#fff;stroke:#263238;stroke-miterlimit:10"></rect><rect x="543.56" y="81.25" width="19.19" height="19.19" style="fill:#fff;stroke:#263238;stroke-miterlimit:10"></rect><rect x="571.14" y="81.25" width="19.19" height="19.19" style="fill:#fff;stroke:#263238;stroke-miterlimit:10"></rect><rect x="598.73" y="81.25" width="19.19" height="19.19" style="fill:#fff;stroke:#263238;stroke-miterlimit:10"></rect><rect x="626.32" y="81.25" width="19.19" height="19.19" style="fill:#fff;stroke:#263238;stroke-miterlimit:10"></rect><rect x="653.91" y="81.25" width="19.19" height="19.19" style="fill:#fff;stroke:#263238;stroke-miterlimit:10"></rect><rect x="681.5" y="81.25" width="19.19" height="19.19" style="fill:#fff;stroke:#263238;stroke-miterlimit:10"></rect><rect x="515.97" y="110.84" width="19.19" height="19.19" style="fill:#fff;stroke:#263238;stroke-miterlimit:10"></rect><rect x="543.56" y="110.84" width="19.19" height="19.19" style="fill:#fff;stroke:#263238;stroke-miterlimit:10"></rect><rect x="571.14" y="110.84" width="19.19" height="19.19" style="fill:#fff;stroke:#263238;stroke-miterlimit:10"></rect><rect x="598.73" y="110.84" width="19.19" height="19.19" style="fill:#fff;stroke:#263238;stroke-miterlimit:10"></rect><rect x="626.32" y="110.84" width="19.19" height="19.19" style="fill:#fff;stroke:#263238;stroke-miterlimit:10"></rect><rect x="653.91" y="110.84" width="19.19" height="19.19" style="fill:#fff;stroke:#263238;stroke-miterlimit:10"></rect><rect x="681.5" y="110.84" width="19.19" height="19.19" style="fill:#fff;stroke:#263238;stroke-miterlimit:10"></rect><rect x="515.97" y="140.43" width="19.19" height="19.19" style="fill:#fff;stroke:#263238;stroke-miterlimit:10"></rect><rect x="543.56" y="140.43" width="19.19" height="19.19" style="fill:#fff;stroke:#263238;stroke-miterlimit:10"></rect><rect x="571.14" y="140.43" width="19.19" height="19.19" style="fill:#fff;stroke:#263238;stroke-miterlimit:10"></rect><rect x="598.73" y="140.43" width="19.19" height="19.19" style="fill:#fff;stroke:#263238;stroke-miterlimit:10"></rect><rect x="626.32" y="140.43" width="19.19" height="19.19" style="fill:#fff;stroke:#263238;stroke-miterlimit:10"></rect><rect x="653.91" y="140.43" width="19.19" height="19.19" style="fill:#fff;stroke:#263238;stroke-miterlimit:10"></rect><rect x="681.5" y="140.43" width="19.19" height="19.19" style="fill:#fff;stroke:#263238;stroke-miterlimit:10"></rect><rect x="515.97" y="170.01" width="19.19" height="19.19" style="fill:#fff;stroke:#263238;stroke-miterlimit:10"></rect><rect x="543.56" y="170.01" width="19.19" height="19.19" style="fill:#fff;stroke:#263238;stroke-miterlimit:10"></rect><rect x="571.14" y="170.01" width="19.19" height="19.19" style="fill:#fff;stroke:#263238;stroke-miterlimit:10"></rect><rect x="598.73" y="170.01" width="19.19" height="19.19" style="fill:#fff;stroke:#263238;stroke-miterlimit:10"></rect><rect x="626.32" y="170.01" width="19.19" height="19.19" style="fill:#fff;stroke:#263238;stroke-miterlimit:10"></rect><rect x="653.91" y="170.01" width="19.19" height="19.19" style="fill:#fff;stroke:#263238;stroke-miterlimit:10"></rect><rect x="681.5" y="170.01" width="19.19" height="19.19" style="fill:#fff;stroke:#263238;stroke-miterlimit:10"></rect><path d="M533.16,52.46h0a4,4,0,0,1-4-4V30.87a4,4,0,0,1,4-4h0a4,4,0,0,1,4,4V48.46A4,4,0,0,1,533.16,52.46Z" style="fill:#263238;stroke:#263238;stroke-miterlimit:10"></path><path d="M563.55,52.46h0a4,4,0,0,1-4-4V30.87a4,4,0,0,1,4-4h0a4,4,0,0,1,4,4V48.46A4,4,0,0,1,563.55,52.46Z" style="fill:#263238;stroke:#263238;stroke-miterlimit:10"></path><path d="M593.93,52.46h0a4,4,0,0,1-4-4V30.87a4,4,0,0,1,4-4h0a4,4,0,0,1,4,4V48.46A4,4,0,0,1,593.93,52.46Z" style="fill:#263238;stroke:#263238;stroke-miterlimit:10"></path><path d="M624.32,52.46h0a4,4,0,0,1-4-4V30.87a4,4,0,0,1,4-4h0a4,4,0,0,1,4,4V48.46A4,4,0,0,1,624.32,52.46Z" style="fill:#263238;stroke:#263238;stroke-miterlimit:10"></path><path d="M654.71,52.46h0a4,4,0,0,1-4-4V30.87a4,4,0,0,1,4-4h0a4,4,0,0,1,4,4V48.46A4,4,0,0,1,654.71,52.46Z" style="fill:#263238;stroke:#263238;stroke-miterlimit:10"></path><path d="M685.09,52.46h0a4,4,0,0,1-4-4V30.87a4,4,0,0,1,4-4h0a4,4,0,0,1,4,4V48.46A4,4,0,0,1,685.09,52.46Z" style="fill:#263238;stroke:#263238;stroke-miterlimit:10"></path></g><g id="freepik--Microscope--inject-169"><path d="M111.57,194s-5.18-4.6-12.45,31.06-3.64,91,11.64,115,48,41.48,48,41.48l22.56-29.11S137,337.81,126,294.87s-4.37-69.86,3.64-71.32,19.72,18.8,19.72,18.8l-33.16-63.86Z" style="fill:#fff;stroke:#263238;stroke-miterlimit:10"></path><path d="M118,224.28a6.55,6.55,0,1,0-6.55,6.55A6.55,6.55,0,0,0,118,224.28Z" style="fill:#263238;stroke:#263238;stroke-miterlimit:10"></path><path d="M115.6,224.28a4.12,4.12,0,1,0-4.11,4.11A4.11,4.11,0,0,0,115.6,224.28Z" style="fill:#fff;stroke:#263238;stroke-miterlimit:10"></path><polygon points="133.26 139.39 105.68 154.17 108.45 165.97 141.55 148.22 133.26 139.39" style="fill:#fff;stroke:#263238;stroke-miterlimit:10"></polygon><rect x="82.16" y="60.53" width="31.29" height="91.69" transform="translate(-38.66 58.84) rotate(-28.2)" style="fill:#263238;stroke:#263238;stroke-miterlimit:10"></rect><rect x="61.86" y="65.62" width="31.29" height="5.78" transform="translate(-23.18 44.75) rotate(-28.2)" style="fill:#fff;stroke:#263238;stroke-miterlimit:10"></rect><rect x="130.98" y="150.93" width="37.33" height="104.73" transform="translate(-78.3 94.84) rotate(-28.2)" style="fill:#fff;stroke:#263238;stroke-miterlimit:10"></rect><rect x="151.45" y="232.45" width="37.33" height="18.07" transform="translate(-93.92 109.04) rotate(-28.2)" style="fill:#263238;stroke:#263238;stroke-miterlimit:10"></rect><rect x="201.15" y="242.39" width="11.64" height="32.02" transform="translate(-97.54 128.46) rotate(-28.2)" style="fill:#fff;stroke:#263238;stroke-miterlimit:10"></rect><rect x="182.81" y="248.59" width="11.64" height="32.02" transform="translate(-69.39 67.07) rotate(-17.08)" style="fill:#fff;stroke:#263238;stroke-miterlimit:10"></rect><rect x="218.84" y="229.27" width="11.64" height="32.02" transform="translate(553.88 292.7) rotate(140.68)" style="fill:#fff;stroke:#263238;stroke-miterlimit:10"></rect><rect x="169.91" y="236.93" width="58.22" height="10.19" transform="translate(-90.74 122.76) rotate(-28.2)" style="fill:#fff;stroke:#263238;stroke-miterlimit:10"></rect><rect x="168.61" y="306.07" width="92.78" height="7.33" transform="translate(-120.84 138.35) rotate(-28.2)" style="fill:#263238;stroke:#263238;stroke-miterlimit:10"></rect><polygon points="277.19 348.6 218.27 374.17 212.21 358.22 271.13 332.65 277.19 348.6" style="fill:#263238;stroke:#263238;stroke-miterlimit:10"></polygon><rect x="182" y="328.18" width="20.38" height="11.64" transform="translate(-135.01 130.45) rotate(-28.2)" style="fill:#fff;stroke:#263238;stroke-miterlimit:10"></rect><circle cx="121.64" cy="188.56" r="19.65" transform="translate(-92.28 120.82) rotate(-39.6)" style="fill:#263238;stroke:#263238;stroke-miterlimit:10"></circle><circle cx="121.64" cy="188.56" r="11.42" transform="translate(-95.32 245.83) rotate(-71.96)" style="fill:#fff;stroke:#263238;stroke-miterlimit:10"></circle><path d="M198.33,366.4l31.55-13.69a5.81,5.81,0,0,1,7.71,3.17h0a5.81,5.81,0,0,1-2.76,7.34l-33.7,17.16Z" style="fill:#fff;stroke:#263238;stroke-miterlimit:10"></path><path d="M186.44,348H188a13.57,13.57,0,0,1,12.32,7.87l11,23.65a5.77,5.77,0,0,1-5.84,8.17l-3.7-.39Z" style="fill:#fff;stroke:#263238;stroke-miterlimit:10"></path><path d="M177.74,340.91,126,417.13H227.92l-26.19-29.84L185.8,342A4.55,4.55,0,0,0,177.74,340.91Z" style="fill:#fff;stroke:#263238;stroke-miterlimit:10"></path><circle cx="179.17" cy="358.18" r="6.55" style="fill:#fff;stroke:#263238;stroke-miterlimit:10"></circle><path d="M115.91,414.62H316.39a4.23,4.23,0,0,1,4.23,4.23v31.41a0,0,0,0,1,0,0H111.68a0,0,0,0,1,0,0V418.85A4.23,4.23,0,0,1,115.91,414.62Z" style="fill:#fff;stroke:#263238;stroke-miterlimit:10"></path></g><g id="freepik--Stairs--inject-169"><polygon points="327.45 257.08 327.45 297.13 285.22 297.13 285.22 347.85 242.99 347.85 242.99 400.02 200.76 400.02 200.76 450.26 242.99 450.26 285.22 450.26 298.51 450.26 327.45 450.26 340.74 450.26 382.97 450.26 425.2 450.26 425.2 257.08 327.45 257.08" style="fill:#fff;stroke:#263238;stroke-miterlimit:10"></polygon><rect x="388.44" y="257.08" width="36.75" height="193.18" style="fill:#fff;stroke:#263238;stroke-miterlimit:10"></rect></g><g id="freepik--character-2--inject-169"><path d="M369.82,57.83s1.23,1.23,3-3.13-1.23-8.71-3.27-9.8-.55,1.22-6.13-.69-8.31-4.08-14.16-1.22-8.44,8.31-9.53,14.43-.28,8.31-3.68,8.17-11.17,1.5-9.67,8.45,6,8.3,3.81,9.8-10.75,3.41-9,10.9,4.35,5.17,8.3,7.21,3.68,5.31,8.72,6.4,4.76,1.64,10.08-1.49,4.22-14.85,5.44-19.34,3.95-5,4.9-10.62-.54-8.85,1.23-10.62,5.72-4.91,6.67-6.4A6.06,6.06,0,0,1,369.82,57.83Z" style="fill:#263238;stroke:#263238;stroke-miterlimit:10"></path><path d="M376,189.4s-4.11,35.4-4.7,37.75-1.91,8.67-2.35,9.7.59,2.2.44,3.53-.73,3.82-.73,3.82S359.13,246,358.39,246s-2.05-2.2-2.5-3.09a27.63,27.63,0,0,1-1.32-6.9c.15-1,3.53-46.87,3.53-46.87Z" style="fill:#fff;stroke:#263238;stroke-miterlimit:10"></path><path d="M368.09,243.17l4.11,5.14s8.52,4.26,8.52,5.14a10.63,10.63,0,0,1-.29,2.06h-25s-.73-3.82,0-5.73,1.62-4.7,1.62-4.7Z" style="fill:#fff;stroke:#263238;stroke-miterlimit:10"></path><path d="M364.12,189s-1.47,20.12-1.61,25.71-2.5,23.06-2.8,23.8.74,1.76.74,2.64-.44,3.67-.44,3.67-10.73,3.38-11.17,3.24-1.47-2.8-1.76-4.85a22.71,22.71,0,0,1,0-4.7s-1.76-27.92-1.62-31.44-.88-19.1-.88-19.1Z" style="fill:#fff;stroke:#263238;stroke-miterlimit:10"></path><path d="M360,244.78l5.58,5s6,2.35,6.32,3.52a3.87,3.87,0,0,1-.3,2.36H348.26l.58-7.64Z" style="fill:#fff;stroke:#263238;stroke-miterlimit:10"></path><path d="M352.62,79.72s-4.92,1.13-8.85,2.53-8.15,3.1-8.43,4.78,4.77,41.46,4.77,41.46-3.51,12.22-3.51,20.79,4.5,44.8,4.5,44.8h40s2.24-32.85.84-46.2-2.53-21.36-2.53-21.36l-.28-20.1s10.4,14.62,11.1,14.9,18.41-15,18.41-15l-1.27-3.93-15.31,3.37s-12.93-21.78-13.63-23.19-17.43-3.37-17.43-3.37Z" style="fill:#fff;stroke:#263238;stroke-miterlimit:10"></path><path d="M367.49,110.71s1.58,20,.79,33.49S367.17,194,367.17,194" style="fill:#fff;stroke:#263238;stroke-miterlimit:10"></path><path d="M348.13,81.36l5.08,11.58s2.53.16,3,.16-1,3.33-1,3.33l11.58,12.86,5.56-17.14-3.49-1.75,3-3.17-4.13-7.3-6.75-.77-8.85,1Z" style="fill:#fff;stroke:#263238;stroke-miterlimit:10"></path><path d="M364.78,79.82s-1.06,7.21-1.2,7.77S364.85,99,364.85,99,356.55,86.47,355,83.8a13.39,13.39,0,0,0-2.81-3.65s-.7-8-.7-8.44a3.32,3.32,0,0,1,1.4-2.1c.7-.28,2.25,0,4.5,1.4S364.78,79.82,364.78,79.82Z" style="fill:#fff;stroke:#263238;stroke-miterlimit:10"></path><path d="M365.44,52.7s-1.6,6-3.59,8-8.16,4.58-8.16,4.58-1,1.59-1.59,1.79l-4.38,1.39s-1.6,2.39.79,3.79,3.79.2,3.79.2a24.05,24.05,0,0,1,3,3.58c.8,1.39,10.16,6.37,12.15,5s4-7.57,4.18-9.76-1.2-12.14-2-14.73S365.44,52.7,365.44,52.7Z" style="fill:#fff;stroke:#263238;stroke-miterlimit:10"></path><path d="M367.78,71a7,7,0,0,0,2.59-1.22c.54-.68-2.46-4.23-2.46-5.45a3.38,3.38,0,0,1,.69-2s.81-1.09,1.63-.68" style="fill:none;stroke:#263238;stroke-miterlimit:10"></path><path d="M369,74s-1.63.81-2.45.54" style="fill:none;stroke:#263238;stroke-miterlimit:10"></path><path d="M364.1,65.39c0,.87-.42,1.57-1,1.57s-.95-.7-.95-1.57.42-1.57.95-1.57S364.1,64.53,364.1,65.39Z" style="fill:#263238"></path><path d="M370.61,64.35c.12.8-.14,1.5-.59,1.57s-.89-.53-1-1.33.15-1.51.59-1.57S370.49,63.55,370.61,64.35Z" style="fill:#263238"></path><path d="M360.29,62.87s2.72-1.5,4.9-1.22" style="fill:none;stroke:#263238;stroke-miterlimit:10"></path><path d="M347.14,89.84c0-.42,18.41,20.66,18.41,20.66l26.84-10.26,3.09,6.46S361.05,125.39,358.8,125s-20.23-20.51-20.23-20.51" style="fill:#fff;stroke:#263238;stroke-miterlimit:10"></path><path d="M411.22,155.92h0a13.31,13.31,0,0,1-13.31-13.31V50h26.61v92.61A13.3,13.3,0,0,1,411.22,155.92Z" style="fill:#fff;stroke:#263238;stroke-miterlimit:10"></path><path d="M400.59,69.57V140.1a10.63,10.63,0,1,0,21.26,0V69.57Z" style="fill:#90CAF9;stroke:#263238;stroke-miterlimit:10"></path><path d="M426.61,51.82H395.83a2.47,2.47,0,0,1-2.48-2.47h0a2.48,2.48,0,0,1,2.48-2.48h30.78a2.48,2.48,0,0,1,2.48,2.48h0A2.47,2.47,0,0,1,426.61,51.82Z" style="fill:#fff;stroke:#263238;stroke-miterlimit:10"></path><path d="M392.39,100.24s1.12-3.09,1.26-3.93,3.8-4.36,4.36-4.92,1.4-2,1.69-1.41a24,24,0,0,1,.14,4.36L407.46,93a.9.9,0,0,1,1.05.79h0a.9.9,0,0,1-.65,1L403.27,96l.49.68,6.45-.76a.84.84,0,0,1,.94.77h0a.84.84,0,0,1-.68.88l-6.4,1.28v.62l5.14-.31a.9.9,0,0,1,1,1h0a.88.88,0,0,1-.82.8l-5.58.5.06.86c.15.53,4,.16,4.47.5h0S409.16,104,407,104l-9.57,1.29-1.86,1Z" style="fill:#fff;stroke:#263238;stroke-miterlimit:10"></path></g><g id="freepik--Liver--inject-169"><path d="M440.58,166.05s-28.48-25.81-82.77-26.7-115.69,14.24-136.16,54.29-19.58,96.12-4.45,133.5,50.73,92.56,69.42,98.79,30.25,3.56,42.71-8.9,16-26.7,35.6-38.27,78.32-42.72,86.33-51.62,13.35-35.6,11.57-81S440.58,166.05,440.58,166.05Z" style="fill:#90CAF9"></path><path d="M412.4,160.77q5.58,2,11.26,4.53" style="fill:none;stroke:#fff;stroke-miterlimit:10;stroke-width:2px"></path><path d="M315.5,154.32s39.49-10.77,87.1,3.24" style="fill:none;stroke:#fff;stroke-miterlimit:10;stroke-width:2px"></path><path d="M364.93,378.76c19.58-11.57,78.32-42.72,86.33-51.62,6.35-7.05,11-25.29,11.8-55.15-.41.72-.83,1.48-1.27,2.3-7.64,14.53-22.16,20.64-48.15,29.81s-40.51,39.75-84.08,60.39-97.83-35.16-100.13-113.13c-1.81-61.79,21.81-86.12,31.69-93.56-17.44,8.55-31.54,20.32-39.47,35.84-20.47,40.05-19.58,96.12-4.45,133.5s50.73,92.56,69.42,98.79,30.25,3.56,42.71-8.9S345.35,390.33,364.93,378.76Z" style="stroke:#263238;stroke-miterlimit:10;opacity:0.15"></path><path d="M440.58,166.05s-28.48-25.81-82.77-26.7-115.69,14.24-136.16,54.29-19.58,96.12-4.45,133.5,50.73,92.56,69.42,98.79,30.25,3.56,42.71-8.9,16-26.7,35.6-38.27,78.32-42.72,86.33-51.62,13.35-35.6,11.57-81S440.58,166.05,440.58,166.05Z" style="fill:none;stroke:#263238;stroke-miterlimit:10"></path><path d="M450.37,164.27s14.74,15.06,21,51.55,4,70.38,1.28,82.84L470,311.12s4.45,9.79,16,3.56,45.39-24.92,58.74-38.27,24-34.71,38.27-50.73,26.7-12.46,34.71-23.14-2.67-33.82-24.92-47.17S542.93,134,506.44,143.8,450.37,164.27,450.37,164.27Z" style="fill:#90CAF9"></path><path d="M551.22,239.9c-31.34,29-37.45,34.39-54.27,38.22a33.58,33.58,0,0,1-7.36.82c2.34-27.95-1.43-59.34-9.12-78.54-13.43-33.58-30.1-36.13-30.1-36.13s14.74,15.06,21,51.55a289.46,289.46,0,0,1,3.74,59.61q-.69-.35-1.32-.69c.22,10.79-.16,19.34-1.14,23.92L470,311.12l0,.06v0s.06.11.11.19l0,0c.05.09.1.19.18.31h0c.07.12.16.26.26.4l0,0c.1.15.21.3.33.46l0,.07c.13.16.26.34.41.51l0,0q.24.27.51.54l0,0c.18.18.38.36.58.54l.08.07c.21.18.43.35.66.52l.05,0a9.59,9.59,0,0,0,1.64.93l.11.05a7.8,7.8,0,0,0,.93.34l.1,0a9.28,9.28,0,0,0,2.19.37h.14a9.71,9.71,0,0,0,1.2,0l.17,0a9.39,9.39,0,0,0,1.34-.19h0a17.47,17.47,0,0,0,4.86-1.83c11.57-6.23,45.39-24.92,58.74-38.27s24-34.71,38.27-50.73c11.57-13,22-13.1,29.76-18.41C595.72,210,574.31,218.5,551.22,239.9Z" style="stroke:#263238;stroke-miterlimit:10;opacity:0.15"></path><path d="M567.59,151.71a73.53,73.53,0,0,1,12,5" style="fill:none;stroke:#fff;stroke-miterlimit:10;stroke-width:2px"></path><path d="M509.08,151.19s26.23-7.35,52.94-1" style="fill:none;stroke:#fff;stroke-miterlimit:10;stroke-width:2px"></path><path d="M450.37,164.27s14.74,15.06,21,51.55,4,70.38,1.28,82.84L470,311.12s4.45,9.79,16,3.56,45.39-24.92,58.74-38.27,24-34.71,38.27-50.73,26.7-12.46,34.71-23.14-2.67-33.82-24.92-47.17S542.93,134,506.44,143.8,450.37,164.27,450.37,164.27Z" style="fill:none;stroke:#263238;stroke-miterlimit:10"></path></g><g id="freepik--character-3--inject-169"><path d="M626.41,314.45S634.93,329,640.9,329s2.9-24.28,2.9-25.19-2.17-20.83-2.17-20.83l-4.71,27.36h-7.79Z" style="fill:#fff;stroke:#263238;stroke-linecap:round;stroke-linejoin:round"></path><path d="M643.71,371.91s4.86,41.87,5.56,44.65,2.25,10.25,2.78,11.46-.7,2.61-.53,4.17.87,4.52.87,4.52,11.29,2.08,12.16,2.08,2.44-2.6,3-3.65a32.55,32.55,0,0,0,1.56-8.16c-.17-1.22-4.17-55.42-4.17-55.42Z" style="fill:#263238;stroke:#263238;stroke-miterlimit:10"></path><path d="M653.09,435.49l-4.87,6.08s-10.07,5-10.07,6.08a12.24,12.24,0,0,0,.35,2.43H668s.87-4.51,0-6.77-1.91-5.56-1.91-5.56Z" style="fill:#fff;stroke:#263238;stroke-miterlimit:10"></path><path d="M657.78,371.39s1.74,23.8,1.91,30.4,2.95,27.27,3.3,28.14-.87,2.09-.87,3.13.52,4.34.52,4.34,12.68,4,13.2,3.82,1.74-3.3,2.09-5.73a26.36,26.36,0,0,0,0-5.56s2.08-33,1.91-37.17,1-22.59,1-22.59Z" style="fill:#263238;stroke:#263238;stroke-miterlimit:10"></path><path d="M662.64,437.4l-6.6,5.91s-7.12,2.78-7.47,4.17a4.51,4.51,0,0,0,.35,2.78h27.62l-.7-9Z" style="fill:#fff;stroke:#263238;stroke-miterlimit:10"></path><path d="M659,271.69s-17,9.43-17.39,11.24-2.72,47.29-2.72,47.29L636,374.43h53.27L688,328.22s2.9-45.84,2.36-47.1-17.58-11.06-17.58-11.06Z" style="fill:#fff;stroke:#263238;stroke-linecap:round;stroke-linejoin:round"></path><path d="M654,274.77l-1.63,4.71,1.63.73-2,2.35s2.53,15,2.53,15.59,15.59-16.49,15.59-16.49l-.91-2.18,3.44-1.81,2.54-6.52-2.36-1.09L659,271.69Z" style="fill:#fff;stroke:#263238;stroke-linecap:round;stroke-linejoin:round"></path><path d="M657.76,282s-2.9,12.68-3.27,16.13-.36,75.55-.36,75.55" style="fill:#fff;stroke:#263238;stroke-linecap:round;stroke-linejoin:round"></path><path d="M663.73,237.09s-9.42-.73-10.69,1.63-.54,6.88-.54,6.88-1.09,2.18-1.45,3.08.18,4.35.18,4.35-2.9,3.26-2.53,4.17a4.25,4.25,0,0,0,1.63,2.17c.54.18-.55,9.42.72,9.79s6.89-.55,6.89-.55S657,282.2,657.76,282s15-12,15-12l-.9-5.25s6.88-12,6.16-17.21S671.53,237.45,663.73,237.09Z" style="fill:#fff;stroke:#263238;stroke-linecap:round;stroke-linejoin:round"></path><path d="M663.73,237.09s-9.42-.73-10.69,1.63-.54,6.88-.54,6.88,11.6,1.09,11.23,1.81-3.8,2.54-2.71,3.27a22.66,22.66,0,0,0,2.71,1.45s-1.89,4.44-1.08,4.52c1.63.19,3.44-4.52,4.16-4.71s3.63,1.09,3.08,3.63-5.25,5.07-5.25,5.07.18,1.09,2.72,2.54a12.31,12.31,0,0,0,4.53,1.63s6.88-12,6.16-17.21S671.53,237.45,663.73,237.09Z" style="fill:#263238;stroke:#263238;stroke-linecap:round;stroke-linejoin:round"></path><path d="M654,253.94c0,.8-.28,1.45-.63,1.45s-.64-.65-.64-1.45.29-1.45.64-1.45S654,253.14,654,253.94Z" style="fill:#263238"></path><path d="M652.32,250.86a2.28,2.28,0,0,1,3.08.72" style="fill:none;stroke:#263238;stroke-linecap:round;stroke-linejoin:round"></path><polygon points="657.94 268.61 661.92 267.35 657.57 273.87 657.94 268.61" style="fill:#263238;stroke:#263238;stroke-linecap:round;stroke-linejoin:round"></polygon><path d="M598.14,273l81.53,71.48a7,7,0,0,1,.67,9.91h0a7,7,0,0,1-10.34.3l-76.2-78.06Z" style="fill:#263238;stroke:#263238;stroke-linecap:round;stroke-linejoin:round"></path><path d="M669.35,337.28,663,341.45l-2.17,5.26s.54,1.81,1.63,1.63,2-.37,2-.37,2.17,2,3.26,2,2.36-.91,3.08-1.27,4.35-7.07,4.35-7.07Z" style="fill:#fff;stroke:#263238;stroke-linecap:round;stroke-linejoin:round"></path><path d="M675.51,290.72,682.76,317l-13.41,20.29,5.8,4.35s20.65-22.47,21.38-23.55-6.16-37-6.16-37-4.53-4.17-8-4" style="fill:#fff;stroke:#263238;stroke-linecap:round;stroke-linejoin:round"></path><path d="M624.24,305l-2.54,4s5.25,6.88,7.07,6.52,4.34-3.08,4.34-4.35-5.79-6.52-6.7-6.88S625.32,303.76,624.24,305Z" style="fill:#fff;stroke:#263238;stroke-linecap:round;stroke-linejoin:round"></path><path d="M569.7,199.94a43.13,43.13,0,1,0,43.12,43.13A43.12,43.12,0,0,0,569.7,199.94Zm0,82.24a39.11,39.11,0,1,1,39.11-39.11A39.11,39.11,0,0,1,569.7,282.18Z" style="fill:#263238;stroke:#263238;stroke-linecap:round;stroke-linejoin:round"></path><path d="M587.33,214a33.92,33.92,0,0,0-17.63-4.93c-.54,0-1.07,0-1.6,0l4.42,11.2A33.86,33.86,0,0,1,587.58,224Z" style="fill:#fff"></path><path d="M567.46,220.63,563,209.72a34,34,0,0,0-24.75,46.36c0-.59,0-1.18,0-1.78A34,34,0,0,1,567.46,220.63Z" style="fill:#fff"></path></g><g id="freepik--character-1--inject-169"><path d="M83.31,229.58s2.29,6,2.52,7.1.45,4.13.45,4.13a27.93,27.93,0,0,1,3,3.67c.23.68-2.29,3.66-2.29,3.66s-.23,9.17-1.14,9.86-6,.23-6,.23l-1.38,6-14.9-4.36.46-5.27s-3-10.31-3.21-11,.23-3.21,5.73-9.17S83.31,229.58,83.31,229.58Z" style="fill:#fff;stroke:#263238;stroke-miterlimit:10"></path><path d="M77.12,234.39s5.5-1.14,6.19-4.81-1.61-3.67-6.65-3.21S58.09,233,57.41,237.14s5.73,16.73,6.64,17.42,8.25,1.15,8.71,0-3.44-5.73-2.75-8.71,3.67-3.21,4.59-1.83,1.83,3,1.83,3,3-1.15,2.52-2.06-1.83-2.53-2.06-3.67,1.83-1.38,2.06-3.44S77.12,234.39,77.12,234.39Z" style="fill:#263238;stroke:#263238;stroke-miterlimit:10"></path><path d="M62,258.46l-3.21,4.81s18.8,3.67,20.63,4.58,5,2.76,5,2.76l-6-6.42Z" style="fill:#fff;stroke:#263238;stroke-miterlimit:10"></path><path d="M113,305.53,121.39,278a1.43,1.43,0,0,0-1.21-1.85L107,274.61a1.46,1.46,0,0,0-1.54,1l-8.11,26a1.44,1.44,0,0,0,1,1.83l12.89,3A1.45,1.45,0,0,0,113,305.53Z" style="fill:#263238;stroke:#263238;stroke-miterlimit:10"></path><path d="M91.81,293.68s2.16-2.77,2.67-3.29,6.27-3.28,6.78-3.69,1.33.51.41,2.05a50.27,50.27,0,0,1-3.49,4.93c-.41.41,4.31.21,5.34-.2s.82.51.2,1.33-3.28,1.23-4.1,1.34-2.36,2-4.52,3-2.57,1.13-3.18,1.13A13.86,13.86,0,0,0,89,301.38l-1.85-3.69Z" style="fill:#fff;stroke:#263238;stroke-miterlimit:10"></path><path d="M65.49,440.05a6.35,6.35,0,0,0,3,3.14c2,.78,9,2.94,9.81,4.32a3.86,3.86,0,0,1,.4,2.75H54.5s-1.77-4.52,1.17-10.61Z" style="fill:#fff;stroke:#263238;stroke-miterlimit:10"></path><path d="M59.8,362.69l.78,22s-3.14,13.15-3.53,16.69-1.38,38.28-1.38,38.28l9.82.4,5.11-26.9s5.69-24,6.08-29.26,1-21.4,1-21.4Z" style="fill:#90CAF9;stroke:#263238;stroke-miterlimit:10"></path><path d="M63.33,359.94s1,9,1.18,17.28-1.57,24.34.78,34.16,4.91,23.56,4.91,24.74v3.53H82.57a9,9,0,0,0,.4-3.92c-.2-2.56-.59-6.29-.59-6.29S83,394.69,83.75,390s1.38-28.47,1.38-28.47Z" style="fill:#90CAF9;stroke:#263238;stroke-miterlimit:10"></path><path d="M82.57,439.65a25.67,25.67,0,0,0,5.11,3.54c2,.78,9,2.94,9.82,4.32a3.89,3.89,0,0,1,.39,2.75H69s-1.76-4.52,1.18-10.61Z" style="fill:#fff;stroke:#263238;stroke-miterlimit:10"></path><path d="M58.78,263.27s-4.58,12.38-5.73,14.9a15.36,15.36,0,0,0-1.37,7.1c.23,1.38,2.52,37.13,2.52,37.13s-3,35.3-1.15,42H95l-5-50.66s-3-31.85-3-35.75a14.09,14.09,0,0,0-2.52-7.33l-5-2.76Z" style="fill:#fff;stroke:#263238;stroke-miterlimit:10"></path><path d="M69.32,278.4s-3.66,5.73-2.52,8.94S82.62,321.26,84,321.49s26.31-15.12,26.31-15.12l-1.37-5.5-17.14,3L81.7,274" style="fill:#fff;stroke:#263238;stroke-miterlimit:10"></path><path d="M108.93,300.87s2.29-5,2.6-5.65,2-.82,2.67-2.87,1.85-2.57,2.15-1.65-2,4.93-2,4.93l5.34-2.26s1,.11.51,1.13a14.9,14.9,0,0,1-1.64,2.36s-.41,4.52-2.05,6.17-6.37,2.56-6.37,2.56Z" style="fill:#fff;stroke:#263238;stroke-miterlimit:10"></path></g><g id="freepik--Floor--inject-169"><line x1="715.19" y1="450.26" x2="730.03" y2="450.26" style="fill:none;stroke:#263238;stroke-miterlimit:10"></line><line x1="19.31" y1="450.26" x2="702.2" y2="450.26" style="fill:none;stroke:#263238;stroke-miterlimit:10"></line></g></svg>